<svg width="216" height="37" viewBox="0 0 216 37" fill="none" xmlns="http://www.w3.org/2000/svg">
<path d="M177.887 20.746C177.887 19.29 178.173 17.9987 178.745 16.872C179.335 15.7453 180.132 14.8787 181.137 14.272C182.143 13.6653 183.261 13.362 184.491 13.362C185.427 13.362 186.32 13.57 187.169 13.986C188.019 14.3847 188.695 14.922 189.197 15.598V8.76001H192.889V28H189.197V25.868C188.747 26.5787 188.114 27.1507 187.299 27.584C186.485 28.0173 185.54 28.234 184.465 28.234C183.252 28.234 182.143 27.922 181.137 27.298C180.132 26.674 179.335 25.7987 178.745 24.672C178.173 23.528 177.887 22.2193 177.887 20.746ZM189.223 20.798C189.223 19.914 189.05 19.16 188.703 18.536C188.357 17.8947 187.889 17.4093 187.299 17.08C186.71 16.7333 186.077 16.56 185.401 16.56C184.725 16.56 184.101 16.7247 183.529 17.054C182.957 17.3833 182.489 17.8687 182.125 18.51C181.779 19.134 181.605 19.8793 181.605 20.746C181.605 21.6127 181.779 22.3753 182.125 23.034C182.489 23.6753 182.957 24.1693 183.529 24.516C184.119 24.8627 184.743 25.036 185.401 25.036C186.077 25.036 186.71 24.8713 187.299 24.542C187.889 24.1953 188.357 23.71 188.703 23.086C189.05 22.4447 189.223 21.682 189.223 20.798Z" fill="black"/>
<path d="M171.692 15.832C172.16 15.0693 172.766 14.4713 173.512 14.038C174.274 13.6047 175.141 13.388 176.112 13.388V17.21H175.15C174.006 17.21 173.139 17.4787 172.55 18.016C171.978 18.5533 171.692 19.4893 171.692 20.824V28H168.052V13.596H171.692V15.832Z" fill="black"/>
<path d="M149.234 20.746C149.234 19.29 149.52 17.9987 150.092 16.872C150.682 15.7453 151.47 14.8787 152.458 14.272C153.464 13.6653 154.582 13.362 155.812 13.362C156.887 13.362 157.823 13.5787 158.62 14.012C159.435 14.4453 160.085 14.9913 160.57 15.65V13.596H164.236V28H160.57V25.894C160.102 26.57 159.452 27.1333 158.62 27.584C157.806 28.0173 156.861 28.234 155.786 28.234C154.573 28.234 153.464 27.922 152.458 27.298C151.47 26.674 150.682 25.7987 150.092 24.672C149.52 23.528 149.234 22.2193 149.234 20.746ZM160.57 20.798C160.57 19.914 160.397 19.16 160.05 18.536C159.704 17.8947 159.236 17.4093 158.646 17.08C158.057 16.7333 157.424 16.56 156.748 16.56C156.072 16.56 155.448 16.7247 154.876 17.054C154.304 17.3833 153.836 17.8687 153.472 18.51C153.126 19.134 152.952 19.8793 152.952 20.746C152.952 21.6127 153.126 22.3753 153.472 23.034C153.836 23.6753 154.304 24.1693 154.876 24.516C155.466 24.8627 156.09 25.036 156.748 25.036C157.424 25.036 158.057 24.8713 158.646 24.542C159.236 24.1953 159.704 23.71 160.05 23.086C160.397 22.4447 160.57 21.682 160.57 20.798Z" fill="black"/>
<path d="M139.726 28.234C138.34 28.234 137.092 27.9307 135.982 27.324C134.873 26.7 133.998 25.8247 133.356 24.698C132.732 23.5713 132.42 22.2713 132.42 20.798C132.42 19.3247 132.741 18.0247 133.382 16.898C134.041 15.7713 134.934 14.9047 136.06 14.298C137.187 13.674 138.444 13.362 139.83 13.362C141.217 13.362 142.474 13.674 143.6 14.298C144.727 14.9047 145.611 15.7713 146.252 16.898C146.911 18.0247 147.24 19.3247 147.24 20.798C147.24 22.2713 146.902 23.5713 146.226 24.698C145.568 25.8247 144.666 26.7 143.522 27.324C142.396 27.9307 141.13 28.234 139.726 28.234ZM139.726 25.062C140.385 25.062 141 24.906 141.572 24.594C142.162 24.2647 142.63 23.7793 142.976 23.138C143.323 22.4967 143.496 21.7167 143.496 20.798C143.496 19.4287 143.132 18.38 142.404 17.652C141.694 16.9067 140.818 16.534 139.778 16.534C138.738 16.534 137.863 16.9067 137.152 17.652C136.459 18.38 136.112 19.4287 136.112 20.798C136.112 22.1673 136.45 23.2247 137.126 23.97C137.82 24.698 138.686 25.062 139.726 25.062Z" fill="black"/>
<path d="M119.089 15.702C119.557 15.0087 120.199 14.4453 121.013 14.012C121.845 13.5787 122.79 13.362 123.847 13.362C125.078 13.362 126.187 13.6653 127.175 14.272C128.181 14.8787 128.969 15.7453 129.541 16.872C130.131 17.9813 130.425 19.2727 130.425 20.746C130.425 22.2193 130.131 23.528 129.541 24.672C128.969 25.7987 128.181 26.674 127.175 27.298C126.187 27.922 125.078 28.234 123.847 28.234C122.773 28.234 121.828 28.026 121.013 27.61C120.216 27.1767 119.575 26.622 119.089 25.946V28H115.449V8.76001H119.089V15.702ZM126.707 20.746C126.707 19.8793 126.525 19.134 126.161 18.51C125.815 17.8687 125.347 17.3833 124.757 17.054C124.185 16.7247 123.561 16.56 122.885 16.56C122.227 16.56 121.603 16.7333 121.013 17.08C120.441 17.4093 119.973 17.8947 119.609 18.536C119.263 19.1773 119.089 19.9313 119.089 20.798C119.089 21.6647 119.263 22.4187 119.609 23.06C119.973 23.7013 120.441 24.1953 121.013 24.542C121.603 24.8713 122.227 25.036 122.885 25.036C123.561 25.036 124.185 24.8627 124.757 24.516C125.347 24.1693 125.815 23.6753 126.161 23.034C126.525 22.3927 126.707 21.63 126.707 20.746Z" fill="black"/>
<path d="M106.112 13.388C107.204 13.388 108.174 13.6307 109.024 14.116C109.873 14.584 110.532 15.286 111 16.222C111.485 17.1407 111.728 18.25 111.728 19.55V28H108.088V20.044C108.088 18.9 107.802 18.0247 107.23 17.418C106.658 16.794 105.878 16.482 104.89 16.482C103.884 16.482 103.087 16.794 102.498 17.418C101.926 18.0247 101.64 18.9 101.64 20.044V28H97.9998V8.76001H101.64V15.39C102.108 14.766 102.732 14.2807 103.512 13.934C104.292 13.57 105.158 13.388 106.112 13.388Z" fill="black"/>
<path d="M89.0838 28.234C87.9051 28.234 86.8478 28.026 85.9118 27.61C84.9758 27.1767 84.2305 26.596 83.6758 25.868C83.1385 25.14 82.8438 24.334 82.7918 23.45H86.4578C86.5271 24.0047 86.7958 24.464 87.2638 24.828C87.7491 25.192 88.3471 25.374 89.0578 25.374C89.7511 25.374 90.2885 25.2353 90.6698 24.958C91.0685 24.6807 91.2678 24.3253 91.2678 23.892C91.2678 23.424 91.0251 23.0773 90.5398 22.852C90.0718 22.6093 89.3178 22.3493 88.2778 22.072C87.2031 21.812 86.3191 21.5433 85.6258 21.266C84.9498 20.9887 84.3605 20.564 83.8578 19.992C83.3725 19.42 83.1298 18.6487 83.1298 17.678C83.1298 16.8807 83.3551 16.1527 83.8058 15.494C84.2738 14.8353 84.9325 14.3153 85.7818 13.934C86.6485 13.5527 87.6625 13.362 88.8238 13.362C90.5398 13.362 91.9091 13.7953 92.9318 14.662C93.9545 15.5113 94.5178 16.664 94.6218 18.12H91.1378C91.0858 17.548 90.8431 17.0973 90.4098 16.768C89.9938 16.4213 89.4305 16.248 88.7198 16.248C88.0611 16.248 87.5498 16.3693 87.1858 16.612C86.8391 16.8547 86.6658 17.1927 86.6658 17.626C86.6658 18.1113 86.9085 18.484 87.3938 18.744C87.8791 18.9867 88.6331 19.238 89.6558 19.498C90.6958 19.758 91.5538 20.0267 92.2298 20.304C92.9058 20.5813 93.4865 21.0147 93.9718 21.604C94.4745 22.176 94.7345 22.9387 94.7518 23.892C94.7518 24.724 94.5178 25.4693 94.0498 26.128C93.5991 26.7867 92.9405 27.3067 92.0738 27.688C91.2245 28.052 90.2278 28.234 89.0838 28.234Z" fill="black"/>
<path d="M64.7547 20.746C64.7547 19.29 65.0407 17.9987 65.6127 16.872C66.202 15.7453 66.9907 14.8787 67.9787 14.272C68.984 13.6653 70.102 13.362 71.3327 13.362C72.4074 13.362 73.3434 13.5787 74.1407 14.012C74.9554 14.4453 75.6054 14.9913 76.0907 15.65V13.596H79.7567V28H76.0907V25.894C75.6227 26.57 74.9727 27.1333 74.1407 27.584C73.326 28.0173 72.3814 28.234 71.3067 28.234C70.0934 28.234 68.984 27.922 67.9787 27.298C66.9907 26.674 66.202 25.7987 65.6127 24.672C65.0407 23.528 64.7547 22.2193 64.7547 20.746ZM76.0907 20.798C76.0907 19.914 75.9174 19.16 75.5707 18.536C75.224 17.8947 74.756 17.4093 74.1667 17.08C73.5774 16.7333 72.9447 16.56 72.2687 16.56C71.5927 16.56 70.9687 16.7247 70.3967 17.054C69.8247 17.3833 69.3567 17.8687 68.9927 18.51C68.646 19.134 68.4727 19.8793 68.4727 20.746C68.4727 21.6127 68.646 22.3753 68.9927 23.034C69.3567 23.6753 69.8247 24.1693 70.3967 24.516C70.986 24.8627 71.61 25.036 72.2687 25.036C72.9447 25.036 73.5774 24.8713 74.1667 24.542C74.756 24.1953 75.224 23.71 75.5707 23.086C75.9174 22.4447 76.0907 21.682 76.0907 20.798Z" fill="black"/>
<path d="M53.138 9.85199C55.0447 9.85199 56.7173 10.2247 58.156 10.97C59.612 11.7153 60.73 12.7813 61.51 14.168C62.3073 15.5373 62.706 17.132 62.706 18.952C62.706 20.772 62.3073 22.3667 61.51 23.736C60.73 25.088 59.612 26.1367 58.156 26.882C56.7173 27.6273 55.0447 28 53.138 28H46.794V9.85199H53.138ZM53.008 24.906C54.9147 24.906 56.388 24.386 57.428 23.346C58.468 22.306 58.988 20.8413 58.988 18.952C58.988 17.0627 58.468 15.5893 57.428 14.532C56.388 13.4573 54.9147 12.92 53.008 12.92H50.434V24.906H53.008Z" fill="black"/>
<path d="M18.5003 34.8876C17.4674 34.8876 16.419 34.6564 15.602 34.1784L7.12284 29.2914C3.66951 26.9634 3.45367 26.6089 3.45367 22.9551V14.0443C3.45367 10.3905 3.65409 10.0359 7.04576 7.73887L15.5865 2.80553C17.2053 1.86512 19.749 1.86512 21.3678 2.80553L29.8778 7.70803C33.3311 10.0359 33.547 10.3905 33.547 14.0443V22.9397C33.547 26.5934 33.3465 26.948 29.9549 29.2451L21.414 34.1784C20.5815 34.6564 19.5332 34.8876 18.5003 34.8876ZM18.5003 4.42428C17.8528 4.42428 17.2207 4.54762 16.7736 4.8097L8.29451 9.7122C5.78159 11.408 5.78159 11.408 5.78159 14.0443V22.9397C5.78159 25.5759 5.78159 25.5759 8.35617 27.318L16.7736 32.1743C17.6832 32.6984 19.3328 32.6984 20.2424 32.1743L28.7215 27.2718C31.219 25.5759 31.219 25.5759 31.219 22.9397V14.0443C31.219 11.408 31.219 11.408 28.6445 9.66595L20.227 4.8097C19.7799 4.54762 19.1478 4.42428 18.5003 4.42428Z" fill="black"/>
<path d="M18.5 24.2812C15.3088 24.2812 12.7188 21.6912 12.7188 18.5C12.7188 15.3088 15.3088 12.7188 18.5 12.7188C21.6912 12.7188 24.2812 15.3088 24.2812 18.5C24.2812 21.6912 21.6912 24.2812 18.5 24.2812ZM18.5 15.0312C16.5883 15.0312 15.0312 16.5883 15.0312 18.5C15.0312 20.4117 16.5883 21.9688 18.5 21.9688C20.4117 21.9688 21.9688 20.4117 21.9688 18.5C21.9688 16.5883 20.4117 15.0312 18.5 15.0312Z" fill="black"/>
<path d="M213.73 21.75V20.71H215.81V28H214.66V21.75H213.73Z" fill="#838383"/>
<path d="M207.574 24.26C207.574 23.1067 207.767 22.2067 208.154 21.56C208.547 20.9067 209.22 20.58 210.174 20.58C211.127 20.58 211.797 20.9067 212.184 21.56C212.577 22.2067 212.774 23.1067 212.774 24.26C212.774 25.4267 212.577 26.34 212.184 27C211.797 27.6534 211.127 27.98 210.174 27.98C209.22 27.98 208.547 27.6534 208.154 27C207.767 26.34 207.574 25.4267 207.574 24.26ZM211.654 24.26C211.654 23.72 211.617 23.2634 211.544 22.89C211.477 22.5167 211.337 22.2134 211.124 21.98C210.91 21.74 210.594 21.62 210.174 21.62C209.754 21.62 209.437 21.74 209.224 21.98C209.01 22.2134 208.867 22.5167 208.794 22.89C208.727 23.2634 208.694 23.72 208.694 24.26C208.694 24.82 208.727 25.29 208.794 25.67C208.86 26.05 209 26.3567 209.214 26.59C209.434 26.8234 209.754 26.94 210.174 26.94C210.594 26.94 210.91 26.8234 211.124 26.59C211.344 26.3567 211.487 26.05 211.554 25.67C211.62 25.29 211.654 24.82 211.654 24.26Z" fill="#838383"/>
<path d="M205.872 28.07C205.665 28.07 205.492 28 205.352 27.86C205.212 27.72 205.142 27.5467 205.142 27.34C205.142 27.1334 205.212 26.96 205.352 26.82C205.492 26.68 205.665 26.61 205.872 26.61C206.072 26.61 206.242 26.68 206.382 26.82C206.522 26.96 206.592 27.1334 206.592 27.34C206.592 27.5467 206.522 27.72 206.382 27.86C206.242 28 206.072 28.07 205.872 28.07Z" fill="#838383"/>
<path d="M201.88 26.98L203.44 22.49H204.65L202.55 28H201.19L199.1 22.49H200.32L201.88 26.98Z" fill="#838383"/>
</svg>
